<svg xmlns="http://www.w3.org/2000/svg" width="581.861" height="295.184" viewBox="0 0 581.861 295.184">
  <defs>
    <style>
      .cls-1 {
        opacity: 0.11;
      }

      .cls-2 {
        fill: #fff8e8;
        opacity: 0.55;
      }
    </style>
  </defs>
  <g id="Group_10002" data-name="Group 10002" class="cls-1">
    <path id="Path_4" data-name="Path 4" class="cls-2" d="M1393.228,1110.684v-64.737c31.1-26.854,69.488-46.1,109.384-49.6,81.089-7.1,136.187-6.262,242.619-38.8,101.429-31.011,124.791-92.037,209.882-129.417h19.164s-4.317,99.443,0,99.443c3.972,0-7.925,190.967-7.925,190.967h-136.3" transform="translate(-1393.228 -828.132)"/>
    <path id="Path_3" data-name="Path 3" class="cls-2" d="M1238.235,1002.053h0c62.1-33.173,67.106-43.323,150.509-50.257s114.04,3.467,207.655-41.6,163.84-62.091,210.743-80.249c12.335-4.776,5.992,37.043,7.923,55.263,5.362,50.572-7.923,129.474-7.923,129.474" transform="translate(-1235.596 -722.643)"/>
    <path id="Path_5" data-name="Path 5" class="cls-2" d="M1349.526,949.526c76.526-19.842-74.42,21.285-9.474,0s202.226-33.349,263.413-44.33,93.132-60.511,179.166-85.722V949.526h-96.789" transform="translate(-1204.263 -660.643)"/>
  </g>
</svg>
